<svg width="24" height="24" viewBox="0 0 24 24" fill="none" xmlns="http://www.w3.org/2000/svg">
<path d="M17 12C17.7956 12 18.5587 12.3161 19.1213 12.8787C19.6839 13.4413 20 14.2044 20 15C20 17.232 19.082 19.02 17.576 20.23C16.094 21.42 14.106 22 12 22C9.894 22 7.906 21.42 6.424 20.23C4.918 19.022 4 17.232 4 15C4.00009 14.2574 4.2756 13.5412 4.77324 12.99C5.27087 12.4388 5.95526 12.0917 6.694 12.016L7 12H17ZM7 14C6.73478 14 6.48043 14.1054 6.29289 14.2929C6.10536 14.4804 6 14.7348 6 15C6 16.634 6.648 17.846 7.676 18.67C8.726 19.514 10.24 20 12 20C13.76 20 15.274 19.514 16.324 18.67C17.352 17.846 18 16.634 18 15C18 14.7348 17.8946 14.4804 17.7071 14.2929C17.5196 14.1054 17.2652 14 17 14H7ZM12 0C12.2652 0 12.5196 0.105357 12.7071 0.292893C12.8946 0.48043 13 0.734784 13 1V2H15C15.7956 2 16.5587 2.31607 17.1213 2.87868C17.6839 3.44129 18 4.20435 18 5V7C18 7.79565 17.6839 8.55871 17.1213 9.12132C16.5587 9.68393 15.7956 10 15 10H9C8.20435 10 7.44129 9.68393 6.87868 9.12132C6.31607 8.55871 6 7.79565 6 7V5C6 4.20435 6.31607 3.44129 6.87868 2.87868C7.44129 2.31607 8.20435 2 9 2H11V1C11 0.734784 11.1054 0.48043 11.2929 0.292893C11.4804 0.105357 11.7348 0 12 0ZM9 4C8.73478 4 8.48043 4.10536 8.29289 4.29289C8.10536 4.48043 8 4.73478 8 5V7C8 7.26522 8.10536 7.51957 8.29289 7.70711C8.48043 7.89464 8.73478 8 9 8H15C15.2652 8 15.5196 7.89464 15.7071 7.70711C15.8946 7.51957 16 7.26522 16 7V5C16 4.73478 15.8946 4.48043 15.7071 4.29289C15.5196 4.10536 15.2652 4 15 4H9Z" fill="#6A7282"/>
</svg>
