<svg width="39" height="39" viewBox="0 0 39 39" fill="none" xmlns="http://www.w3.org/2000/svg">
<path d="M34.125 9.75C31.7687 9.75 30.4525 12.09 30.9888 13.8288L25.22 19.6137C24.7325 19.4675 24.0175 19.4675 23.53 19.6137L19.3862 15.47C19.9388 13.7313 18.6225 11.375 16.25 11.375C13.8938 11.375 12.5612 13.715 13.1137 15.47L5.70375 22.8637C3.965 22.3275 1.625 23.6438 1.625 26C1.625 27.7875 3.0875 29.25 4.875 29.25C7.23125 29.25 8.5475 26.91 8.01125 25.1712L15.405 17.7613C15.8925 17.9075 16.6075 17.9075 17.095 17.7613L21.2388 21.905C20.6862 23.6437 22.0025 26 24.375 26C26.7313 26 28.0638 23.66 27.5112 21.905L33.2962 16.1363C35.035 16.6725 37.375 15.3563 37.375 13C37.375 11.2125 35.9125 9.75 34.125 9.75Z" fill="#6A7282"/>
<path d="M25.0391 13.1914L26.5666 9.82766L29.9141 8.31641L26.5666 6.80516L25.0391 3.44141L23.5441 6.80516L20.1641 8.31641L23.5441 9.82766L25.0391 13.1914ZM6.35156 16.4414L7.16406 13.1914L10.4141 12.3789L7.16406 11.5664L6.35156 8.31641L5.53906 11.5664L2.28906 12.3789L5.53906 13.1914L6.35156 16.4414Z" fill="#6A7282"/>
</svg>
