<svg width="34" height="34" viewBox="0 0 34 34" fill="none" xmlns="http://www.w3.org/2000/svg">
<path d="M7.08594 31.1654C5.90538 31.1654 4.90191 30.7522 4.07552 29.9258C3.24913 29.0994 2.83594 28.0959 2.83594 26.9154C2.83594 25.9945 3.1018 25.1681 3.63352 24.4362C4.16524 23.7043 4.84383 23.1966 5.66927 22.9133V19.832C5.66927 18.6515 6.08247 17.648 6.90885 16.8216C7.73524 15.9952 8.73872 15.582 9.91927 15.582H15.5859V11.0841C14.7595 10.8008 14.081 10.2931 13.5502 9.5612C13.0194 8.82925 12.7535 8.00286 12.7526 7.08203C12.7526 5.90148 13.1658 4.898 13.9922 4.07161C14.8186 3.24523 15.822 2.83203 17.0026 2.83203C18.1832 2.83203 19.1866 3.24523 20.013 4.07161C20.8394 4.898 21.2526 5.90148 21.2526 7.08203C21.2526 8.00286 20.9872 8.82925 20.4564 9.5612C19.9257 10.2931 19.2466 10.8008 18.4193 11.0841V15.582H24.0859C25.2665 15.582 26.27 15.9952 27.0964 16.8216C27.9227 17.648 28.3359 18.6515 28.3359 19.832V22.9133C29.1623 23.1966 29.8414 23.7043 30.3731 24.4362C30.9048 25.1681 31.1702 25.9945 31.1693 26.9154C31.1693 28.0959 30.7561 29.0994 29.9297 29.9258C29.1033 30.7522 28.0998 31.1654 26.9193 31.1654C25.7387 31.1654 24.7352 30.7522 23.9089 29.9258C23.0825 29.0994 22.6693 28.0959 22.6693 26.9154C22.6693 25.9945 22.9351 25.1681 23.4669 24.4362C23.9986 23.7043 24.6772 23.1966 25.5026 22.9133V19.832C25.5026 19.4306 25.3666 19.0944 25.0946 18.8234C24.8226 18.5523 24.4864 18.4163 24.0859 18.4154H18.4193V22.9133C19.2457 23.1966 19.9247 23.7043 20.4564 24.4362C20.9882 25.1681 21.2535 25.9945 21.2526 26.9154C21.2526 28.0959 20.8394 29.0994 20.013 29.9258C19.1866 30.7522 18.1832 31.1654 17.0026 31.1654C15.822 31.1654 14.8186 30.7522 13.9922 29.9258C13.1658 29.0994 12.7526 28.0959 12.7526 26.9154C12.7526 25.9945 13.0185 25.1681 13.5502 24.4362C14.0819 23.7043 14.7605 23.1966 15.5859 22.9133V18.4154H9.91927C9.51788 18.4154 9.18166 18.5514 8.9106 18.8234C8.63955 19.0954 8.50355 19.4316 8.5026 19.832V22.9133C9.32899 23.1966 10.008 23.7043 10.5398 24.4362C11.0715 25.1681 11.3369 25.9945 11.3359 26.9154C11.3359 28.0959 10.9227 29.0994 10.0964 29.9258C9.26997 30.7522 8.26649 31.1654 7.08594 31.1654ZM7.08594 28.332C7.48733 28.332 7.82402 28.196 8.09602 27.924C8.36802 27.652 8.50355 27.3158 8.5026 26.9154C8.50166 26.5149 8.36566 26.1787 8.0946 25.9067C7.82355 25.6347 7.48733 25.4987 7.08594 25.4987C6.68455 25.4987 6.34833 25.6347 6.07727 25.9067C5.80622 26.1787 5.67022 26.5149 5.66927 26.9154C5.66833 27.3158 5.80433 27.6525 6.07727 27.9254C6.35022 28.1984 6.68644 28.3339 7.08594 28.332ZM17.0026 28.332C17.404 28.332 17.7407 28.196 18.0127 27.924C18.2847 27.652 18.4202 27.3158 18.4193 26.9154C18.4183 26.5149 18.2823 26.1787 18.0113 25.9067C17.7402 25.6347 17.404 25.4987 17.0026 25.4987C16.6012 25.4987 16.265 25.6347 15.9939 25.9067C15.7229 26.1787 15.5869 26.5149 15.5859 26.9154C15.585 27.3158 15.721 27.6525 15.9939 27.9254C16.2669 28.1984 16.6031 28.3339 17.0026 28.332ZM26.9193 28.332C27.3207 28.332 27.6574 28.196 27.9294 27.924C28.2014 27.652 28.3369 27.3158 28.3359 26.9154C28.335 26.5149 28.199 26.1787 27.9279 25.9067C27.6569 25.6347 27.3207 25.4987 26.9193 25.4987C26.5179 25.4987 26.1817 25.6347 25.9106 25.9067C25.6395 26.1787 25.5035 26.5149 25.5026 26.9154C25.5017 27.3158 25.6377 27.6525 25.9106 27.9254C26.1835 28.1984 26.5198 28.3339 26.9193 28.332ZM17.0026 8.4987C17.404 8.4987 17.7407 8.3627 18.0127 8.0907C18.2847 7.8187 18.4202 7.48248 18.4193 7.08203C18.4183 6.68159 18.2823 6.34537 18.0113 6.07336C17.7402 5.80136 17.404 5.66536 17.0026 5.66536C16.6012 5.66536 16.265 5.80136 15.9939 6.07336C15.7229 6.34537 15.5869 6.68159 15.5859 7.08203C15.585 7.48248 15.721 7.81917 15.9939 8.09211C16.2669 8.36506 16.6031 8.50059 17.0026 8.4987Z" fill="#6A7282"/>
</svg>
