<svg width="32" height="32" viewBox="0 0 32 32" fill="none" xmlns="http://www.w3.org/2000/svg">
<path d="M21.9333 27.7667L19.8 26.2L21.8333 23.3667L18.5333 22.3L19.3333 19.7333L22.6667 20.8333V17.3333H25.3333V20.8333L28.6667 19.7333L29.4667 22.3L26.1667 23.3667L28.2 26.2L26.0667 27.7667L24 24.9333L21.9333 27.7667ZM6.66667 28C5.93334 28 5.30534 27.7391 4.78267 27.2173C4.26 26.6956 3.99911 26.0676 4 25.3333V6.66667C4 5.93333 4.26134 5.30578 4.784 4.784C5.30667 4.26222 5.93422 4.00089 6.66667 4H25.3333C26.0667 4 26.6947 4.26133 27.2173 4.784C27.74 5.30667 28.0009 5.93422 28 6.66667V14.2C27.5778 14 27.1444 13.8387 26.7 13.716C26.2556 13.5933 25.8 13.4996 25.3333 13.4347V6.66667H6.66667V18.6667H12.2667C12.4667 19.2667 12.8 19.7889 13.2667 20.2333C13.7333 20.6778 14.2556 20.9889 14.8333 21.1667C14.6556 22.3667 14.6889 23.5556 14.9333 24.7333C15.1778 25.9111 15.6556 27 16.3667 28H6.66667ZM9.33334 11.6667H22.6667V9H9.33334V11.6667ZM9.33334 16.3333H17.2333C17.8333 15.6889 18.5053 15.1444 19.2493 14.7C19.9933 14.2556 20.7991 13.9111 21.6667 13.6667H9.33334V16.3333Z" fill="#6A7282"/>
</svg>
