<svg width="28" height="28" viewBox="0 0 28 28" fill="none" xmlns="http://www.w3.org/2000/svg">
<path fill-rule="evenodd" clip-rule="evenodd" d="M17.5002 2.33301C17.8096 2.33301 18.1063 2.45592 18.3251 2.67472C18.5439 2.89351 18.6668 3.19026 18.6668 3.49967V4.66634H19.8335C20.7618 4.66634 21.652 5.03509 22.3084 5.69147C22.9647 6.34785 23.3335 7.23808 23.3335 8.16634V9.33301H24.5002C24.8096 9.33301 25.1063 9.45592 25.3251 9.67472C25.5439 9.89351 25.6668 10.1903 25.6668 10.4997C25.6668 10.8091 25.5439 11.1058 25.3251 11.3246C25.1063 11.5434 24.8096 11.6663 24.5002 11.6663H23.3335V16.333H24.5002C24.8096 16.333 25.1063 16.4559 25.3251 16.6747C25.5439 16.8935 25.6668 17.1903 25.6668 17.4997C25.6668 17.8091 25.5439 18.1058 25.3251 18.3246C25.1063 18.5434 24.8096 18.6663 24.5002 18.6663H23.3335V19.833C23.3335 20.7613 22.9647 21.6515 22.3084 22.3079C21.652 22.9643 20.7618 23.333 19.8335 23.333H18.6668V24.4997C18.6668 24.8091 18.5439 25.1058 18.3251 25.3246C18.1063 25.5434 17.8096 25.6663 17.5002 25.6663C17.1907 25.6663 16.894 25.5434 16.6752 25.3246C16.4564 25.1058 16.3335 24.8091 16.3335 24.4997V23.333H11.6668V24.4997C11.6668 24.8091 11.5439 25.1058 11.3251 25.3246C11.1063 25.5434 10.8096 25.6663 10.5002 25.6663C10.1907 25.6663 9.894 25.5434 9.67521 25.3246C9.45641 25.1058 9.3335 24.8091 9.3335 24.4997V23.333H8.16683C7.23857 23.333 6.34833 22.9643 5.69196 22.3079C5.03558 21.6515 4.66683 20.7613 4.66683 19.833V18.6663H3.50016C3.19074 18.6663 2.894 18.5434 2.6752 18.3246C2.45641 18.1058 2.3335 17.8091 2.3335 17.4997C2.3335 17.1903 2.45641 16.8935 2.6752 16.6747C2.894 16.4559 3.19074 16.333 3.50016 16.333H4.66683V11.6663H3.50016C3.19074 11.6663 2.894 11.5434 2.6752 11.3246C2.45641 11.1058 2.3335 10.8091 2.3335 10.4997C2.3335 10.1903 2.45641 9.89351 2.6752 9.67472C2.894 9.45592 3.19074 9.33301 3.50016 9.33301H4.66683V8.16634C4.66683 7.23808 5.03558 6.34785 5.69196 5.69147C6.34833 5.03509 7.23857 4.66634 8.16683 4.66634H9.3335V3.49967C9.3335 3.19026 9.45641 2.89351 9.67521 2.67472C9.894 2.45592 10.1907 2.33301 10.5002 2.33301C10.8096 2.33301 11.1063 2.45592 11.3251 2.67472C11.5439 2.89351 11.6668 3.19026 11.6668 3.49967V4.66634H16.3335V3.49967C16.3335 3.19026 16.4564 2.89351 16.6752 2.67472C16.894 2.45592 17.1907 2.33301 17.5002 2.33301ZM19.8335 6.99967H8.16683C7.85741 6.99967 7.56066 7.12259 7.34187 7.34138C7.12308 7.56018 7.00016 7.85692 7.00016 8.16634V19.833C7.00016 20.1424 7.12308 20.4392 7.34187 20.658C7.56066 20.8768 7.85741 20.9997 8.16683 20.9997H19.8335C20.1429 20.9997 20.4397 20.8768 20.6585 20.658C20.8772 20.4392 21.0002 20.1424 21.0002 19.833V8.16634C21.0002 7.85692 20.8772 7.56018 20.6585 7.34138C20.4397 7.12259 20.1429 6.99967 19.8335 6.99967ZM16.3335 9.33301C16.9222 9.33282 17.4892 9.55515 17.9208 9.95542C18.3524 10.3557 18.6168 10.9043 18.661 11.4913L18.6668 11.6663V16.333C18.667 16.9217 18.4447 17.4887 18.0444 17.9203C17.6441 18.352 17.0955 18.6164 16.5085 18.6605L16.3335 18.6663H11.6668C11.0782 18.6665 10.5112 18.4442 10.0795 18.0439C9.64788 17.6437 9.38348 17.095 9.33933 16.508L9.3335 16.333V11.6663C9.33331 11.0777 9.55564 10.5107 9.95591 10.079C10.3562 9.64739 10.9048 9.38299 11.4918 9.33884L11.6668 9.33301H16.3335ZM16.3335 11.6663H11.6668V16.333H16.3335V11.6663Z" fill="#6A7282"/>
</svg>
