<svg width="24" height="24" viewBox="0 0 24 24" fill="none" xmlns="http://www.w3.org/2000/svg">
<g clip-path="url(#clip0_106_22)">
<path d="M16.9097 9.0166C17.1697 8.9961 17.4279 9.07822 17.6284 9.24512C17.8289 9.41222 17.9561 9.65149 17.9829 9.91113C18.0097 10.1707 17.9341 10.4303 17.772 10.6348L17.7681 10.6396L15.939 12.833C15.6146 13.2236 15.3071 13.5949 15.0151 13.8594H15.0142C14.6914 14.1501 14.2561 14.4374 13.6675 14.4375C13.0789 14.4375 12.6421 14.1505 12.3198 13.8594C12.1739 13.7272 12.0238 13.568 11.8696 13.3936L11.394 12.834L11.1021 12.4844C10.7264 12.0338 10.5114 11.7796 10.3403 11.624L10.3345 11.6191L10.3335 11.6182L10.3267 11.624C10.156 11.7782 9.93974 12.0326 9.56494 12.4834V12.4844L7.76807 14.6396C7.59834 14.8435 7.35448 14.972 7.09033 14.9961C6.82634 15.0201 6.56361 14.9381 6.35986 14.7686C6.15601 14.5988 6.02755 14.355 6.00342 14.0908C5.99149 13.9602 6.00552 13.8284 6.04443 13.7031C6.08341 13.5778 6.14705 13.4612 6.23096 13.3604V13.3594L8.06104 11.166L8.53564 10.6064C8.68964 10.432 8.83897 10.2728 8.98486 10.1406L8.98584 10.1396C9.30866 9.84894 9.74482 9.56152 10.3335 9.56152C10.8484 9.56161 11.2467 9.78221 11.5542 10.0322L11.6812 10.1406L11.9028 10.3574C12.1281 10.5914 12.3634 10.8728 12.6069 11.166H12.606L12.8979 11.5156C13.1799 11.8538 13.3716 12.0811 13.522 12.2393L13.6606 12.376L13.6665 12.3818H13.6675L13.6733 12.375C13.844 12.2208 14.0603 11.9663 14.4351 11.5156L16.2319 9.35938L16.2358 9.35547C16.4076 9.15909 16.6496 9.03721 16.9097 9.0166Z" fill="#6A7282" stroke="#6A7282" stroke-width="0.5"/>
<path d="M12.0566 1C14.3588 1 16.1877 0.999652 17.6191 1.19238C18.9996 1.37771 20.142 1.75639 21.0615 2.58496L21.2432 2.75684L21.4141 2.93848C22.2421 3.85795 22.6222 5.00002 22.8076 6.37988C23.0003 7.81232 23 9.6412 23 11.9434V12.0566C23 14.3588 23.0003 16.1877 22.8076 17.6191C22.6099 19.0918 22.1924 20.2939 21.2432 21.2432C20.294 22.1912 19.0919 22.6099 17.6201 22.8076C16.1877 23.0003 14.3588 23 12.0566 23H11.9434C9.64121 23 7.81231 23.0003 6.38086 22.8076C4.90822 22.6099 3.70609 22.1924 2.75684 21.2432C1.80876 20.294 1.39012 19.0919 1.19238 17.6201C0.999656 16.1877 1 14.3588 1 12.0566V11.9434C1 9.64121 0.999651 7.81231 1.19238 6.38086C1.39009 4.90822 1.80759 3.70609 2.75684 2.75684C3.70597 1.80876 4.90809 1.39012 6.37988 1.19238C7.81232 0.999656 9.6412 1 11.9434 1H12.0566ZM12 3C9.61512 3 7.92698 3.0026 6.64746 3.17383C5.5529 3.32102 4.87331 3.57942 4.375 3.9873L4.17188 4.17188C3.65683 4.6879 3.34203 5.3967 3.17383 6.64746C3.0026 7.92698 3 9.61512 3 12C3 14.3849 3.0026 16.073 3.17383 17.3525C3.34206 18.6035 3.65595 19.3122 4.1709 19.8281L4.37402 20.0117C4.87265 20.4194 5.55284 20.679 6.64746 20.8262C7.92698 20.9974 9.61512 21 12 21C14.3849 21 16.073 20.9974 17.3525 20.8262C18.6035 20.6579 19.3122 20.3441 19.8281 19.8291L20.0117 19.626C20.4194 19.1273 20.679 18.4472 20.8262 17.3525C20.9974 16.073 21 14.3849 21 12C21 9.61512 20.9974 7.92698 20.8262 6.64746C20.679 5.55276 20.4201 4.87338 20.0127 4.375L19.8291 4.17188C19.3131 3.65688 18.6034 3.34204 17.3525 3.17383C16.073 3.0026 14.3849 3 12 3Z" fill="#6A7282" stroke="#6A7282" stroke-width="0.5"/>
</g>
<defs>
<clipPath id="clip0_106_22">
<rect width="24" height="24" fill="white"/>
</clipPath>
</defs>
</svg>
