<svg width="30" height="30" viewBox="0 0 30 30" fill="none" xmlns="http://www.w3.org/2000/svg">
<path d="M19.9287 13.5926C20.2605 12.6544 20.9132 11.8636 21.7716 11.36C22.63 10.8565 23.6388 10.6726 24.6196 10.8409C25.6005 11.0092 26.4903 11.5188 27.1317 12.2797C27.7732 13.0406 28.125 14.0037 28.125 14.9989C28.125 15.9941 27.7732 16.9572 27.1317 17.7181C26.4903 18.479 25.6005 18.9886 24.6196 19.1569C23.6388 19.3252 22.63 19.1413 21.7716 18.6377C20.9132 18.1342 20.2605 17.3434 19.9287 16.4051H16.1675C15.8347 17.347 15.1784 18.1402 14.3156 18.6435C13.4528 19.1469 12.4393 19.3277 11.4556 19.1539L9.4325 22.7314C10.0408 23.5189 10.3511 24.496 10.3087 25.4901C10.2662 26.4843 9.8738 27.4314 9.20067 28.1642C8.52754 28.897 7.61706 29.3683 6.6301 29.4948C5.64313 29.6213 4.64322 29.3949 3.80704 28.8555C2.97085 28.3162 2.35222 27.4986 2.06045 26.5473C1.76867 25.596 1.82254 24.5722 2.21253 23.6568C2.60252 22.7414 3.30353 21.9933 4.19169 21.5446C5.07986 21.096 6.09801 20.9758 7.06625 21.2051L9.00687 17.7701C8.33802 17.0019 7.96972 16.0175 7.97 14.9989C7.97 13.9376 8.36187 12.9701 9.00687 12.2276L7.06625 8.79264C6.09801 9.02201 5.07986 8.90177 4.19169 8.45315C3.30353 8.00453 2.60252 7.25641 2.21253 6.34098C1.82254 5.42556 1.76867 4.40175 2.06045 3.45045C2.35222 2.49915 2.97085 1.6816 3.80704 1.14226C4.64322 0.602914 5.64313 0.376489 6.6301 0.502991C7.61706 0.629493 8.52754 1.10078 9.20067 1.83358C9.8738 2.56638 10.2662 3.51352 10.3087 4.50765C10.3511 5.50178 10.0408 6.47891 9.4325 7.26639L11.4556 10.8439C12.4393 10.67 13.4528 10.8509 14.3156 11.3543C15.1784 11.8576 15.8347 12.6508 16.1675 13.5926H19.9287ZM4.68875 4.68639C4.68875 5.05935 4.8369 5.41704 5.10063 5.68076C5.36435 5.94448 5.72204 6.09264 6.095 6.09264C6.46796 6.09264 6.82564 5.94448 7.08937 5.68076C7.35309 5.41704 7.50125 5.05935 7.50125 4.68639C7.50125 4.31343 7.35309 3.95574 7.08937 3.69202C6.82564 3.4283 6.46796 3.28014 6.095 3.28014C5.72204 3.28014 5.36435 3.4283 5.10063 3.69202C4.8369 3.95574 4.68875 4.31343 4.68875 4.68639ZM12.1887 13.5926C11.8158 13.5926 11.4581 13.7408 11.1944 14.0045C10.9307 14.2682 10.7825 14.6259 10.7825 14.9989C10.7825 15.3719 10.9307 15.7295 11.1944 15.9933C11.4581 16.257 11.8158 16.4051 12.1887 16.4051C12.5617 16.4051 12.9194 16.257 13.1831 15.9933C13.4468 15.7295 13.595 15.3719 13.595 14.9989C13.595 14.6259 13.4468 14.2682 13.1831 14.0045C12.9194 13.7408 12.5617 13.5926 12.1887 13.5926ZM23.9075 13.5926C23.5345 13.5926 23.1769 13.7408 22.9131 14.0045C22.6494 14.2682 22.5012 14.6259 22.5012 14.9989C22.5012 15.3719 22.6494 15.7295 22.9131 15.9933C23.1769 16.257 23.5345 16.4051 23.9075 16.4051C24.2805 16.4051 24.6381 16.257 24.9019 15.9933C25.1656 15.7295 25.3137 15.3719 25.3137 14.9989C25.3137 14.6259 25.1656 14.2682 24.9019 14.0045C24.6381 13.7408 24.2805 13.5926 23.9075 13.5926ZM6.095 23.9051C5.72204 23.9051 5.36435 24.0533 5.10063 24.317C4.8369 24.5807 4.68875 24.9384 4.68875 25.3114C4.68875 25.6843 4.8369 26.042 5.10063 26.3058C5.36435 26.5695 5.72204 26.7176 6.095 26.7176C6.46796 26.7176 6.82564 26.5695 7.08937 26.3058C7.35309 26.042 7.50125 25.6843 7.50125 25.3114C7.50125 24.9384 7.35309 24.5807 7.08937 24.317C6.82564 24.0533 6.46796 23.9051 6.095 23.9051Z" fill="#f7d849"/>
</svg>
