<svg width="38" height="44" viewBox="0 0 38 44" fill="none" xmlns="http://www.w3.org/2000/svg">
<path d="M18.7107 0.000166941C16.2639 -0.0102348 13.839 0.465547 11.5744 1.40035C9.30991 2.33515 7.25011 3.71066 5.51266 5.44834C3.77521 7.18602 2.39412 9.25185 1.44826 11.5279C0.502401 13.8039 0.0102859 16.2455 1.59455e-05 18.7133C-0.00575555 23.1343 1.5554 27.4117 4.40176 30.7738H4.36258L15.4649 42.5642C15.8771 43.0001 16.3725 43.3474 16.9213 43.5852C17.4732 43.8242 18.0676 43.9475 18.6683 43.9475C19.2689 43.9475 19.8633 43.8242 20.4152 43.5852C20.9828 43.3709 21.5007 43.0413 21.9369 42.6169L33.0392 30.8265H32.9739L33.209 30.5433C35.9351 27.2148 37.4227 23.0305 37.4149 18.7133C37.4054 16.2458 36.9141 13.8043 35.969 11.5284C35.0238 9.25238 33.6434 7.18651 31.9064 5.44874C30.1695 3.71097 28.1101 2.33536 25.846 1.40048C23.5818 0.465596 21.1572 -0.0102337 18.7107 0.000166941ZM13.0942 26.5648C12.2117 26.5661 11.3487 26.3034 10.6143 25.8099C9.87993 25.3163 9.3072 24.6142 8.96859 23.7922C8.62998 22.9703 8.54072 22.0655 8.71209 21.1924C8.88346 20.3193 9.30777 19.5171 9.93132 18.8872C10.5549 18.2574 11.3497 17.8283 12.2151 17.6542C13.0805 17.48 13.9777 17.5687 14.7932 17.9091C15.6086 18.2494 16.3056 18.826 16.796 19.5659C17.2864 20.3059 17.5482 21.176 17.5482 22.066C17.5491 22.6565 17.4345 23.2414 17.2111 23.7871C16.9876 24.3329 16.6597 24.8289 16.246 25.2468C15.8323 25.6646 15.341 25.9961 14.8002 26.2223C14.2594 26.4484 13.6797 26.5648 13.0942 26.5648ZM24.5492 17.5541C23.6646 17.558 22.7988 17.2969 22.0615 16.8039C21.3241 16.311 20.7485 15.6083 20.4076 14.785C20.0667 13.9617 19.9758 13.0549 20.1465 12.1795C20.3172 11.304 20.7417 10.4994 21.3663 9.8676C21.9909 9.23579 22.7874 8.80525 23.6549 8.63054C24.5224 8.45584 25.4218 8.54484 26.2391 8.88626C27.0563 9.22769 27.7547 9.80616 28.2456 10.5484C28.7366 11.2906 28.998 12.1631 28.9967 13.0553C28.9975 13.6452 28.8832 14.2295 28.6601 14.7749C28.4371 15.3202 28.1097 15.8159 27.6968 16.2337C27.2838 16.6514 26.7932 16.983 26.2532 17.2096C25.7131 17.4361 25.1341 17.5532 24.5492 17.5541Z" fill="url(#paint0_linear_6050_2639)"/>
<defs>
<linearGradient id="paint0_linear_6050_2639" x1="18.7074" y1="0" x2="18.7074" y2="43.9475" gradientUnits="userSpaceOnUse">
<stop stop-color="#0BA775"/>
<stop offset="1" stop-color="#0BA775"/>
</linearGradient>
</defs>
</svg>
