<svg xmlns="http://www.w3.org/2000/svg" viewBox="45.230003356933594 90.44999694824219 109.5409927368164 78.63499450683594"><g>
  <path fill="#D50A0A" d="M71.852,129.904l-0.004-29.673l-3.726-2.087V90.45H85.08v7.694l-3.546,2.087v60.527l-9.064-2.717       l-13.104-38.663l-0.002,25.489l4.161,3.196v7.855l-18.193-4.624v-6.696l4.163-1.628v-42.714l-4.265-2.112V90.45h13.768       L71.852,129.904z"></path>
  <path fill="#D50A0A" d="M103.066,157.041l3.632,4.351v7.693l-18.021-6.733v-6.531l3.978-1.629v-53.96l-3.954-2V90.45h31.291       v15.659h-6.878l-2.084-6.429h-7.964v18.106h5.977l2.352-3.438h4.796v16.112h-4.796l-2.264-3.258h-6.064V157.041z"></path>
  <path fill="#D50A0A" d="M122.96,159.765v-7.694l4.476-3.674v-48.166l-3.822-2V90.45h18.044v7.782l-3.546,2v45.188l7.754-2.095       l1.487-11.843h7.418v19.785L122.96,159.765z"></path>
</g></svg>