<svg width="841" height="266" viewBox="0 0 841 266" fill="none" xmlns="http://www.w3.org/2000/svg">
<g clip-path="url(#clip0_319_678)">
<path d="M46.3635 191.368C38.9209 191.506 31.5378 189.981 24.7235 186.896C18.7891 184.064 13.7394 179.584 10.1417 173.959C6.69227 168.168 4.86652 161.508 4.86652 154.714C4.86652 147.921 6.69227 141.26 10.1417 135.469C13.7564 129.859 18.8384 125.416 24.801 122.652C31.5721 119.505 38.9352 117.937 46.3635 118.06C53.7822 117.905 61.1394 119.474 67.8872 122.652C73.9099 125.368 79.0413 129.819 82.6629 135.469C86.1379 141.251 87.9787 147.915 87.9787 154.714C87.9787 161.513 86.1379 168.178 82.6629 173.959C79.0367 179.634 73.9099 184.123 67.8872 186.896C61.1189 189.997 53.77 191.524 46.3635 191.368ZM46.3635 176.435C52.5041 176.797 58.5487 174.741 63.2722 170.685C65.394 168.661 67.0568 166.181 68.1427 163.421C69.2285 160.661 69.7106 157.688 69.5548 154.714C69.7106 151.741 69.2285 148.768 68.1427 146.008C67.0568 143.247 65.394 140.767 63.2722 138.743C58.5487 134.687 52.5041 132.632 46.3635 132.993C40.1901 132.653 34.1165 134.704 29.3385 138.743C27.2615 140.795 25.639 143.284 24.5815 146.04C23.5241 148.796 23.0566 151.755 23.211 154.714C23.0566 157.673 23.5241 160.632 24.5815 163.388C25.639 166.145 27.2615 168.634 29.3385 170.685C34.1165 174.724 40.1901 176.776 46.3635 176.435ZM135.561 191.368C128.861 191.488 122.224 190.013 116.17 187.056C110.687 184.199 106.132 179.759 103.062 174.279C99.7877 168.319 98.1395 161.559 98.2918 154.714C98.1381 147.959 99.6739 141.277 102.752 135.309C105.805 129.801 110.381 125.353 115.899 122.532C122.093 119.441 128.911 117.908 135.793 118.06C140.737 117.906 145.652 118.888 150.181 120.935C154.351 122.942 158.094 125.778 161.195 129.28V89.3523C161.131 88.1677 161.324 86.9833 161.76 85.8852C162.196 84.787 162.864 83.8027 163.716 83.0037C165.599 81.4104 167.991 80.5987 170.425 80.7278C172.814 80.5832 175.164 81.3991 176.979 83.0037C177.831 83.8027 178.499 84.787 178.935 85.8852C179.371 86.9833 179.564 88.1677 179.5 89.3523V182.744C179.568 183.946 179.378 185.15 178.942 186.268C178.506 187.386 177.836 188.391 176.979 189.212C175.056 190.665 172.733 191.449 170.348 191.449C167.962 191.449 165.639 190.665 163.716 189.212C162.869 188.417 162.204 187.439 161.768 186.349C161.333 185.258 161.137 184.081 161.195 182.903V180.029C158.03 183.787 154.079 186.759 149.64 188.723C145.201 190.686 140.388 191.591 135.561 191.368ZM138.353 176.435C144.531 176.811 150.617 174.756 155.378 170.685C157.455 168.634 159.078 166.145 160.135 163.388C161.192 160.632 161.66 157.673 161.506 154.714C161.66 151.755 161.192 148.796 160.135 146.04C159.078 143.284 157.455 140.795 155.378 138.743C150.617 134.672 144.531 132.617 138.353 132.993C135.459 132.816 132.559 133.233 129.823 134.22C127.086 135.208 124.568 136.745 122.414 138.743C120.451 140.861 118.933 143.372 117.952 146.119C116.971 148.866 116.55 151.792 116.713 154.714C116.55 157.636 116.971 160.562 117.952 163.309C118.933 166.057 120.451 168.567 122.414 170.685C124.549 172.664 127.042 174.19 129.75 175.177C132.459 176.163 135.329 176.591 138.198 176.435H138.353ZM228.52 191.368C221.819 191.494 215.182 190.018 209.129 187.056C203.642 184.19 199.077 179.753 195.982 174.279C192.738 168.309 191.104 161.554 191.251 154.714C191.078 147.957 192.615 141.27 195.711 135.309C198.743 129.784 203.325 125.331 208.858 122.532C215.017 119.46 221.793 117.927 228.636 118.06C233.58 117.91 238.494 118.892 243.024 120.935C247.187 122.954 250.928 125.788 254.038 129.28V89.3523C253.969 88.1708 254.156 86.9884 254.585 85.8904C255.014 84.7924 255.675 83.8064 256.52 83.0037C258.406 81.4172 260.796 80.6064 263.229 80.7278C265.629 80.5852 267.99 81.4003 269.822 83.0037C270.667 83.8064 271.328 84.7924 271.757 85.8904C272.186 86.9884 272.373 88.1708 272.304 89.3523V182.744C272.391 183.945 272.213 185.15 271.783 186.271C271.353 187.391 270.683 188.396 269.822 189.212C267.891 190.663 265.562 191.444 263.171 191.444C260.78 191.444 258.451 190.663 256.52 189.212C255.68 188.414 255.023 187.434 254.593 186.344C254.164 185.253 253.975 184.078 254.038 182.903V180.029C250.868 183.792 246.912 186.768 242.465 188.731C238.019 190.695 233.198 191.597 228.365 191.368H228.52ZM231.312 176.435C237.385 176.734 243.348 174.683 248.027 170.685C250.117 168.642 251.751 166.156 252.816 163.398C253.88 160.64 254.35 157.677 254.193 154.714C254.35 151.751 253.88 148.788 252.816 146.031C251.751 143.273 250.117 140.786 248.027 138.743C243.268 134.669 237.18 132.613 231.002 132.993C228.113 132.815 225.219 133.232 222.489 134.219C219.759 135.206 217.247 136.744 215.101 138.743C213.126 140.854 211.597 143.362 210.609 146.111C209.621 148.859 209.197 151.788 209.362 154.714C209.197 157.64 209.621 160.569 210.609 163.318C211.597 166.067 213.126 168.575 215.101 170.685C217.266 172.704 219.803 174.254 222.561 175.241C225.32 176.229 228.243 176.635 231.157 176.435H231.312ZM319.54 191.368C304.57 191.368 293.543 186.909 286.459 177.992C285.168 176.462 284.392 174.543 284.249 172.522C284.299 171.298 284.645 170.106 285.254 169.053C285.863 168.001 286.717 167.121 287.739 166.493C289.085 165.528 290.675 164.987 292.315 164.936C293.401 164.961 294.471 165.214 295.458 165.681C296.445 166.148 297.329 166.819 298.055 167.651C300.714 170.525 303.837 172.903 307.285 174.678C310.874 176.135 314.713 176.828 318.57 176.715C321.858 176.813 325.134 176.271 328.227 175.117C330.825 174.079 332.105 172.762 332.105 171.125C332.057 170.091 331.735 169.091 331.175 168.232C330.614 167.374 329.836 166.689 328.925 166.253C324.774 164.079 320.422 162.34 315.933 161.063C308.146 158.985 300.771 155.526 294.138 150.841C292.133 149.252 290.511 147.207 289.401 144.866C288.291 142.525 287.722 139.951 287.739 137.346C287.649 134.501 288.299 131.683 289.622 129.184C290.945 126.685 292.892 124.595 295.263 123.131C301.511 119.402 308.684 117.639 315.894 118.06C322.182 117.962 328.435 119.03 334.354 121.215C339.07 122.783 343.236 125.74 346.338 129.719C347.458 131.087 348.1 132.802 348.16 134.591C348.143 135.745 347.824 136.873 347.238 137.857C346.651 138.84 345.817 139.643 344.825 140.18C343.387 141.202 341.686 141.759 339.939 141.778C338.543 141.751 337.166 141.433 335.893 140.843C334.62 140.253 333.476 139.403 332.531 138.344C330.44 136.463 327.96 135.097 325.279 134.351C322.204 133.367 318.998 132.882 315.778 132.914C309.263 132.914 306.005 134.511 306.005 137.665C306.013 138.296 306.152 138.919 306.413 139.49C306.674 140.062 307.051 140.569 307.517 140.979C309.168 142.28 311.016 143.291 312.986 143.974C315.571 145.065 319.76 146.502 325.551 148.286C332.495 150.053 339.007 153.289 344.67 157.789C346.517 159.503 347.975 161.616 348.94 163.976C349.905 166.336 350.354 168.885 350.255 171.444C350.234 174.375 349.477 177.25 348.057 179.79C346.636 182.33 344.601 184.448 342.149 185.938C335.225 189.96 327.322 191.845 319.385 191.368H319.54ZM370.925 191.368C368.48 191.536 366.069 190.703 364.216 189.052C363.397 188.243 362.761 187.259 362.352 186.168C361.944 185.078 361.772 183.909 361.85 182.744V126.845C361.772 125.679 361.944 124.51 362.352 123.42C362.761 122.33 363.397 121.345 364.216 120.536C366.069 118.885 368.48 118.053 370.925 118.22C373.365 118.094 375.761 118.921 377.634 120.536C378.474 121.334 379.132 122.314 379.561 123.404C379.99 124.495 380.18 125.67 380.116 126.845V130.039C382.072 126.435 384.855 123.378 388.222 121.135C391.391 119.044 395.083 117.948 398.848 117.981C402.623 117.942 406.319 119.099 409.435 121.295C412.551 123.434 414.98 126.477 416.416 130.039C419.043 126.423 422.432 123.468 426.328 121.393C430.223 119.319 434.525 118.179 438.909 118.06C442.223 117.885 445.53 118.516 448.563 119.904C451.595 121.291 454.267 123.396 456.361 126.046C460.893 132.547 463.111 140.458 462.643 148.446V182.744C462.702 183.922 462.506 185.098 462.07 186.189C461.634 187.28 460.969 188.258 460.122 189.052C458.253 190.674 455.854 191.502 453.413 191.368C450.968 191.531 448.559 190.7 446.704 189.052C445.885 188.243 445.249 187.259 444.841 186.168C444.432 185.078 444.26 183.909 444.338 182.744V147.368C444.575 143.645 443.695 139.937 441.818 136.747C441.058 135.536 440.002 134.551 438.757 133.893C437.511 133.234 436.119 132.924 434.721 132.993C432.162 132.959 429.661 133.77 427.585 135.309C425.171 137.295 423.212 139.803 421.845 142.656V182.584C421.908 183.759 421.719 184.934 421.29 186.024C420.861 187.115 420.203 188.094 419.363 188.893C417.49 190.507 415.094 191.334 412.654 191.208C410.209 191.376 407.798 190.544 405.945 188.893C405.126 188.083 404.49 187.099 404.081 186.009C403.673 184.919 403.501 183.75 403.579 182.584V150.402C403.579 138.823 400.36 132.993 393.922 132.993C391.933 132.959 389.965 133.43 388.193 134.363C386.421 135.296 384.9 136.663 383.762 138.344C381.115 142.728 379.842 147.843 380.116 152.997V182.744C380.18 183.918 379.99 185.093 379.561 186.184C379.132 187.274 378.474 188.254 377.634 189.052C375.721 190.706 373.262 191.535 370.77 191.368H370.925ZM502.782 191.368C497.461 191.497 492.174 190.462 487.269 188.334C483.143 186.557 479.545 183.693 476.837 180.029C474.392 176.338 473.118 171.958 473.192 167.491C473.129 164.16 473.877 160.867 475.367 157.91C476.857 154.953 479.042 152.427 481.724 150.562C488.648 146.001 496.783 143.781 504.992 144.213C512.266 143.857 519.462 145.884 525.547 150.003V146.529C525.666 144.601 525.362 142.67 524.657 140.88C523.952 139.089 522.864 137.486 521.475 136.188C518.143 133.588 514.012 132.312 509.84 132.594C502.951 132.399 496.141 134.138 490.139 137.625C488.345 138.802 486.29 139.489 484.167 139.622C483.104 139.597 482.06 139.326 481.113 138.828C480.166 138.331 479.341 137.619 478.699 136.747C477.779 135.625 477.247 134.221 477.186 132.754C477.162 131.417 477.475 130.097 478.093 128.922C478.711 127.746 479.615 126.756 480.715 126.046C484.576 123.304 488.885 121.303 493.436 120.137C498.709 118.678 504.148 117.953 509.607 117.981C518.682 117.478 527.649 120.198 535.009 125.687C538.061 128.112 540.503 131.257 542.13 134.856C543.756 138.455 544.52 142.403 544.356 146.369V183.303C544.403 184.421 544.2 185.535 543.763 186.559C543.326 187.584 542.666 188.491 541.835 189.212C539.985 190.742 537.649 191.51 535.281 191.368C532.888 191.519 530.517 190.814 528.572 189.372C527.773 188.666 527.145 187.78 526.734 186.782C526.324 185.785 526.143 184.703 526.206 183.622V181.945C520.932 188.227 513.072 191.368 502.627 191.368H502.782ZM507.125 178.152C511.839 178.4 516.539 177.454 520.815 175.397C522.305 174.7 523.569 173.577 524.456 172.161C525.343 170.745 525.816 169.096 525.818 167.411C525.771 165.788 525.275 164.212 524.389 162.869C523.503 161.525 522.263 160.469 520.815 159.825C516.647 157.726 512.033 156.737 507.397 156.95C503.348 156.715 499.317 157.656 495.762 159.665C494.515 160.495 493.5 161.646 492.819 163.005C492.139 164.365 491.817 165.884 491.884 167.411C491.806 168.974 492.123 170.53 492.802 171.93C493.482 173.329 494.502 174.524 495.762 175.397C499.168 177.393 503.056 178.348 506.97 178.152H507.125ZM590.583 191.368C575.613 191.368 564.587 186.909 557.502 177.992C556.211 176.462 555.436 174.543 555.292 172.522C555.342 171.298 555.688 170.106 556.297 169.053C556.906 168.001 557.76 167.121 558.782 166.493C560.129 165.528 561.719 164.987 563.358 164.936C564.445 164.961 565.514 165.214 566.501 165.681C567.489 166.148 568.372 166.819 569.098 167.651C571.757 170.525 574.88 172.903 578.328 174.678C581.918 176.135 585.757 176.828 589.613 176.715C592.901 176.813 596.178 176.271 599.27 175.117C601.868 174.079 603.148 172.762 603.148 171.125C603.088 170.089 602.757 169.09 602.191 168.232C601.624 167.375 600.843 166.691 599.929 166.253C595.779 164.079 591.426 162.34 586.938 161.063C579.151 158.985 571.775 155.526 565.142 150.841C563.137 149.252 561.516 147.207 560.406 144.866C559.296 142.525 558.727 139.951 558.743 137.346C558.678 134.549 559.314 131.782 560.591 129.313C561.869 126.843 563.744 124.756 566.034 123.251C572.362 119.425 579.651 117.619 586.976 118.06C593.251 117.966 599.491 119.034 605.397 121.215C610.118 122.773 614.287 125.731 617.381 129.719C618.501 131.087 619.143 132.802 619.204 134.591C619.186 135.745 618.868 136.873 618.281 137.857C617.694 138.84 616.861 139.643 615.869 140.18C614.431 141.202 612.729 141.759 610.982 141.778C609.586 141.749 608.211 141.43 606.938 140.84C605.665 140.25 604.521 139.401 603.575 138.344C601.484 136.463 599.003 135.097 596.323 134.351C593.247 133.367 590.042 132.882 586.821 132.914C580.306 132.914 577.048 134.511 577.048 137.665C577.053 138.301 577.195 138.928 577.463 139.501C577.732 140.074 578.12 140.579 578.6 140.979C580.23 142.289 582.066 143.302 584.029 143.974C586.744 145.052 590.893 146.489 596.594 148.286C603.542 150.044 610.055 153.281 615.713 157.789C617.56 159.503 619.018 161.616 619.983 163.976C620.948 166.336 621.397 168.885 621.298 171.444C621.278 174.375 620.52 177.25 619.1 179.79C617.68 182.33 615.644 184.448 613.193 185.938C606.269 189.964 598.365 191.85 590.428 191.368H590.583ZM689.863 171.404C690.556 171.937 691.117 172.63 691.501 173.428C691.885 174.226 692.082 175.106 692.074 175.996C691.996 178.019 691.319 179.969 690.135 181.586C687.96 184.765 684.964 187.255 681.487 188.773C677.525 190.547 673.241 191.432 668.921 191.368C662.508 191.727 656.209 189.508 651.353 185.179C649.206 182.907 647.539 180.201 646.458 177.232C645.377 174.263 644.905 171.096 645.071 167.93V134.311H639.331C636.947 134.438 634.592 133.719 632.661 132.275C631.856 131.664 631.207 130.862 630.768 129.938C630.329 129.013 630.114 127.993 630.14 126.964C630.099 125.927 630.291 124.893 630.701 123.944C631.112 122.996 631.729 122.157 632.506 121.494C634.503 120.069 636.904 119.367 639.331 119.498H645.071V97.7771C645.012 96.5991 645.208 95.4225 645.644 94.3317C646.08 93.2409 646.745 92.2631 647.592 91.4685C649.47 89.8642 651.863 89.0385 654.301 89.1526C656.732 89.0043 659.124 89.8347 660.971 91.4685C661.784 92.2838 662.419 93.2682 662.834 94.356C663.248 95.4437 663.433 96.61 663.376 97.7771V119.498H676.755C679.148 119.347 681.519 120.052 683.464 121.494C684.276 122.134 684.929 122.964 685.367 123.916C685.805 124.867 686.017 125.912 685.985 126.964C686.012 127.993 685.796 129.013 685.357 129.938C684.918 130.862 684.269 131.664 683.464 132.275C681.531 133.747 679.155 134.468 676.755 134.311H663.376V169.527C663.326 170.447 663.459 171.367 663.765 172.232C664.072 173.097 664.546 173.888 665.16 174.558C666.591 175.852 668.454 176.525 670.356 176.435C671.822 176.47 673.281 176.227 674.661 175.716C676.089 175.019 677.399 174.088 678.539 172.961C680.251 170.929 682.65 169.644 685.248 169.368C686.917 169.505 688.489 170.224 689.708 171.404H689.863ZM740.279 191.368C733.058 191.551 725.892 190.021 719.337 186.896C713.644 184.199 708.834 179.858 705.492 174.399C702.254 168.586 700.618 161.973 700.761 155.273C700.465 150.244 701.192 145.207 702.895 140.484C704.598 135.761 707.239 131.455 710.65 127.843C717.372 121.321 726.783 118.06 738.883 118.06C745.602 117.924 752.282 119.145 758.545 121.654C763.828 123.68 768.47 127.16 771.964 131.716C775.184 135.828 776.912 140.967 776.85 146.25C776.967 148.244 776.635 150.24 775.882 152.082C775.129 153.924 773.974 155.562 772.507 156.87C769.084 159.572 764.827 160.905 760.523 160.624H718.329C718.199 162.961 718.626 165.297 719.572 167.426C720.518 169.555 721.955 171.414 723.758 172.842C728.701 175.832 734.403 177.223 740.124 176.834C746.935 177.079 753.669 175.29 759.515 171.684C761.565 170.126 763.968 169.137 766.495 168.809C767.374 168.85 768.235 169.073 769.028 169.464C769.82 169.855 770.529 170.406 771.11 171.085C771.836 171.765 772.42 172.59 772.826 173.51C773.233 174.43 773.454 175.425 773.476 176.435C773.503 177.511 773.26 178.575 772.77 179.526C772.281 180.478 771.563 181.283 770.684 181.865C766.584 185.048 761.959 187.442 757.033 188.932C751.546 190.608 745.847 191.429 740.124 191.368H740.279ZM754.939 147.447C756.11 147.556 757.283 147.261 758.274 146.609C758.631 146.176 758.901 145.674 759.067 145.132C759.234 144.591 759.294 144.02 759.243 143.455C759.193 141.702 758.634 140.004 757.639 138.581C756.644 137.158 755.258 136.074 753.659 135.469C749.018 133.34 743.959 132.356 738.883 132.594C733.661 132.301 728.481 133.697 724.069 136.587C722.39 137.795 721.027 139.411 720.1 141.292C719.173 143.172 718.711 145.259 718.756 147.368L754.939 147.447ZM797.404 191.368C794.959 191.536 792.548 190.703 790.695 189.052C789.876 188.243 789.24 187.259 788.832 186.168C788.423 185.078 788.251 183.909 788.329 182.744V126.845C788.247 125.692 788.401 124.535 788.782 123.448C789.163 122.361 789.762 121.369 790.54 120.536C792.357 118.903 794.725 118.072 797.133 118.22C799.529 118.069 801.886 118.902 803.687 120.536C804.487 121.359 805.111 122.346 805.518 123.432C805.926 124.519 806.108 125.681 806.053 126.845V131.596C808.734 127.944 812.163 124.945 816.097 122.812C819.97 120.714 824.286 119.631 828.662 119.658H831.726C834.168 119.495 836.591 120.2 838.59 121.654C839.417 122.28 840.08 123.107 840.52 124.062C840.96 125.017 841.163 126.069 841.111 127.124C841.155 128.201 840.95 129.274 840.511 130.253C840.073 131.232 839.414 132.089 838.59 132.754C836.555 134.115 834.147 134.76 831.726 134.591H826.995C824.221 134.461 821.452 134.947 818.876 136.015C816.3 137.082 813.977 138.707 812.064 140.779C808.206 145.345 806.206 151.265 806.479 157.31V182.744C806.542 183.918 806.353 185.093 805.924 186.184C805.495 187.274 804.837 188.254 803.997 189.052C802.114 190.676 799.702 191.504 797.249 191.368H797.404Z" fill="white"/>
</g>
<defs>
<clipPath id="clip0_319_678">
<rect width="841" height="266" fill="white"/>
</clipPath>
</defs>
</svg>
