<?xml version="1.0" encoding="UTF-8"?>
<!-- Created with Inkscape (http://www.inkscape.org/) -->
<svg width="800" height="280.4" version="1.1" xmlns="http://www.w3.org/2000/svg">
 <title>Logo-dynamic plate-Parimatch -2line-CMYK</title>
 <g transform="matrix(2.89676 0 0 -2.89676 1.69565 279.143)">
  <g transform="translate(16.308,95.9301)">
   <path d="m0 0-16.308-56.919h28.139l-10.872-39.011h241.745l15.988 57.558h-85.058l10.872 38.372z"/>
  </g>
  <g style="fill:#f8ff13">
   <g transform="translate(61.3955,50.2036)">
    <path d="m0 0 2.558 9.273h12.151c6.395 0 10.233 2.878 12.151 8.954l.96 3.517c2.238 7.674-1.279 12.791-9.593 12.791h-52.442l-9.913-34.215h44.128zm18.227 24.942-2.239-7.355h-11.192l2.239 7.355z"/>
   </g>
   <g transform="translate(93.6919,50.2036)">
    <path d="m0 0 3.198 5.756h15.029v-5.756h9.912v34.215h-19.186l-20.145-34.215zm14.07 24.942h4.157v-10.872h-10.233z"/>
   </g>
   <g transform="translate(161.802 68.4302)">
    <path d="m0 0 .959 3.198c2.239 7.994-1.278 12.791-9.593 12.791h-18.546l-9.913-34.216h10.233l2.558 9.274h6.395l2.879-9.274h10.551l-3.197 9.914c3.837 1.278 6.396 3.836 7.674 8.313m-19.826 6.715h10.873l-1.919-7.354h-11.19z"/>
   </g>
   <g transform="translate(171.396 50.2036)">
    <path d="m0 0 9.911 34.215h-10.231l-9.913-34.215z"/>
   </g>
   <g transform="translate(107.442 45.4063)">
    <path d="m0 0-11.832-13.75-4.477 13.75h-44.447l-9.593-34.215h44.128l5.436 18.866 3.517-10.551h6.395l9.594 11.191-5.437-19.506h10.233l9.593 34.215z"/>
   </g>
   <g transform="translate(134.303 45.4063)">
    <path d="m0 0-20.146-34.215h11.512l3.198 5.756h15.029v-5.756h9.911v34.215zm-.96-20.146 6.076 10.874h4.157v-10.874z"/>
   </g>
   <g transform="translate(188.343 35.4941)">
    <path d="m0 0 2.559 9.912h-31.018l-2.878-9.912h11.192l-6.714-24.303h10.231l6.715 24.303z"/>
   </g>
   <g transform="translate(201.773 35.4941)">
    <path d="m0 0h15.669l2.878 9.912h-16.628c-6.396 0-10.233-2.878-12.151-8.953l-3.518-12.471c-2.238-7.994 1.278-12.791 9.593-12.791h12.791l2.878 9.913h-15.669z"/>
   </g>
   <g transform="translate(246.541,45.4063)">
    <path d="m0 0-3.518-12.471h-11.511l3.517 12.471h-10.232l-9.913-34.215h10.232l3.518 12.153h11.831l-3.517-12.153h10.232l9.593 34.215z"/>
   </g>
  </g>
 </g>
</svg>